<?xml version="1.0" standalone="no"?><!DOCTYPE svg PUBLIC "-//W3C//DTD SVG 1.1//EN" "http://www.w3.org/Graphics/SVG/1.1/DTD/svg11.dtd"><svg t="1558841956724" class="icon" style="" viewBox="0 0 1024 1024" version="1.1" xmlns="http://www.w3.org/2000/svg" p-id="4466" xmlns:xlink="http://www.w3.org/1999/xlink" width="1200" height="1200"><defs><style type="text/css"></style></defs><path d="M502.2 393.6m-163 0a163 163 0 1 0 326 0 163 163 0 1 0-326 0Z" fill="#AED7FF" p-id="4467"></path><path d="M197.5 363.4c0.1-1.4 0.2-2.7 0.3-4.1 12-147.5 137.4-263.1 285.6-263.1 151.5 0 275.8 118.2 285.9 267.2h20c-10-160-143.3-287.2-305.9-287.2-158.5 0-292.7 123.6-305.5 281.4-0.2 1.9-0.3 3.8-0.4 5.7h20zM768.1 414.9c-16 142.9-137.6 254.4-284.7 254.4s-268.6-109-284.7-254.4h-20.1c16.3 156.6 146.7 274.4 304.8 274.4 158.2 0 288.7-120.4 304.8-274.4h-20.1z" fill="#108EE9" p-id="4468"></path><path d="M483.4 160.3c-122.7 0-222.5 99.8-222.5 222.5s99.8 222.5 222.5 222.5 222.5-99.8 222.5-222.5c-0.1-122.7-99.9-222.5-222.5-222.5z m0 407.4c-102.1 0-184.9-82.8-184.9-184.9 0-102.1 82.8-184.9 184.9-184.9s184.9 82.8 184.9 184.9c0 102.1-82.8 184.9-184.9 184.9z" fill="#108EE9" p-id="4469"></path><path d="M483.4 510.7c-70.5 0-127.9-57.4-127.9-127.9s57.4-127.9 127.9-127.9 127.9 57.4 127.9 127.9-57.4 127.9-127.9 127.9z m0-209.3c-44.9 0-81.4 36.5-81.4 81.4s36.5 81.4 81.4 81.4c44.9 0 81.4-36.5 81.4-81.4s-36.6-81.4-81.4-81.4z" fill="#108EE9" p-id="4470"></path><path d="M433.2 563.8c0-51.5-0.2-103.1 0.1-154.6 0.2-36.1 18-57 48.2-57.2 32.1-0.2 54 22.6 54.2 57.8 0.4 57.4 0 114.8 0.2 172.2 0.1 30.5 7 38 39.5 40.9 65.3 5.7 130.6 11.1 195.9 16 41.3 3.1 57.7 20.5 49.6 58.2-16.4 76.4-34.4 152.6-51.1 228.9-4.5 20.8-18.2 30.5-39.7 31.4-29.5 1.3-59.1 2-88.7 2.1-83.2 0.3-166.4 0.2-249.6 0-32.3 0-42.7-6.7-52.8-34.7-27.9-77.3-55.5-154.7-83.2-232-8.1-22.5 4-47.3 27.4-56 22.2-8.2 52.7 2.8 62.4 24.2 11 24.4 21 49.3 30.1 74.3 5.4 14.8 13.6 26.7 31.6 24 19.2-3 26.3-16.8 26.2-34.4-0.5-53.7-0.4-107.4-0.3-161.1z" fill="#1195FE" p-id="4471"></path></svg>